<svg xmlns="http://www.w3.org/2000/svg" viewBox="0 0 640 512">
  <path d="M624 352h-16V243.9c0-12.7-5.1-24.8-14.1-33.8l-89.9-89.9c-9-9-21.2-14.1-33.8-14.1H416V80c0-26.5-21.5-48-48-48H48C21.5 32 0 53.5 0 80v272c0 26.5 21.5 48 48 48h16c0 44.2 35.8 80 80 80s80-35.8 80-80h192c0 44.2 35.8 80 80 80s80-35.8 80-80h48c8.8 0 16-7.2 16-16v-16c0-8.8-7.2-16-16-16zM144 432c-26.5 0-48-21.5-48-48s21.5-48 48-48 48 21.5 48 48-21.5 48-48 48zm336 0c-26.5 0-48-21.5-48-48s21.5-48 48-48 48 21.5 48 48-21.5 48-48 48zm80-160H416V144h54.1l89.9 89.9V272z"/>
</svg>